<?xml version="1.0" encoding="UTF-8"?>
<svg xmlns="http://www.w3.org/2000/svg" xmlns:xlink="http://www.w3.org/1999/xlink" width="512pt" height="687pt" viewBox="0 0 512 687" version="1.1">
<g id="surface1">
<path style=" stroke:none;fill-rule:nonzero;fill:rgb(0%,0%,0%);fill-opacity:1;" d="M 249.164062 17.414062 C 215.171875 57.105469 196.710938 80.699219 179.566406 106.359375 C 152.472656 146.957031 134.226562 185.800781 121.101562 230.921875 C 98.167969 309.734375 89.023438 416.585938 99.035156 488.703125 C 103.230469 518.910156 110.699219 543.941406 123.84375 571.84375 C 126.796875 578.140625 135.015625 594.277344 135.25 594.277344 C 135.390625 594.277344 135.84375 594.632812 136.257812 595.082031 C 138.167969 597.050781 140.195312 597.542969 142.226562 596.519531 C 143.664062 595.792969 144.945312 594.316406 145.378906 592.839844 L 145.714844 591.679688 L 148.570312 591.777344 C 152.828125 591.933594 154.246094 592.507812 155.230469 594.472656 L 155.761719 595.554688 L 155.785156 600.96875 C 155.785156 604.488281 155.882812 606.714844 156.039062 607.34375 C 156.589844 609.605469 157.890625 611.457031 160.375 613.503906 L 161.65625 614.546875 L 161.949219 614.074219 C 162.128906 613.835938 162.363281 613.660156 162.484375 613.699219 C 162.601562 613.738281 163.527344 612.242188 164.53125 610.375 C 175.804688 589.632812 186.738281 574.007812 197.515625 563.285156 C 205.359375 555.472656 211.390625 551.910156 222.660156 548.445312 C 224.453125 547.894531 226.050781 547.382812 226.226562 547.34375 C 226.835938 547.148438 229.164062 551.144531 229.96875 553.742188 C 230.582031 555.707031 230.582031 558.640625 229.96875 560.902344 C 229.144531 564.011719 226.855469 568.125 223.527344 572.550781 C 219.054688 578.496094 214.660156 583.414062 201.378906 597.425781 C 192.789062 606.476562 189.320312 610.273438 185.003906 615.332031 C 181.164062 619.820312 177.125 624.855469 177.023438 625.289062 C 176.90625 625.761719 178.542969 629.441406 179.941406 631.804688 C 183.09375 637.15625 189.023438 642.429688 192.964844 643.394531 C 194.582031 643.808594 195.941406 643.589844 197.734375 642.664062 C 198.71875 642.152344 199.191406 641.722656 200.492188 640.066406 C 202.421875 637.648438 203.566406 636.78125 204.90625 636.78125 C 205.398438 636.800781 206.34375 636.917969 206.996094 637.078125 C 209.242188 637.628906 211.269531 637.371094 213.4375 636.269531 C 215.371094 635.285156 215.488281 634.914062 215.761719 628.222656 C 216.097656 619.9375 216.90625 617.183594 219.390625 615.941406 C 221.003906 615.136719 223.804688 615.332031 228.335938 616.59375 C 229.28125 616.847656 230.9375 617.125 232.019531 617.203125 C 233.101562 617.261719 235.015625 617.457031 236.257812 617.636719 C 237.496094 617.8125 239.585938 617.949219 240.886719 617.96875 C 244.238281 617.988281 244.90625 617.65625 247.230469 614.859375 C 247.722656 614.269531 249.082031 610.847656 249.457031 609.273438 C 249.695312 608.289062 249.65625 607.480469 249.339844 605.277344 C 249.242188 604.609375 249.300781 604.175781 249.578125 603.605469 C 250.070312 602.542969 252.472656 600.21875 255.269531 598.09375 C 260.195312 594.375 273.023438 585.699219 273.144531 586.011719 C 273.183594 586.128906 273.910156 585.894531 274.777344 585.519531 C 277.164062 584.496094 278.621094 584.320312 282.109375 584.59375 C 287.566406 585.046875 289.0625 584.832031 289.988281 583.53125 C 290.503906 582.804688 290.855469 581.722656 290.640625 581.585938 C 290.382812 581.425781 289.65625 578.121094 289.65625 577.117188 C 289.65625 575.957031 290.148438 574.363281 290.898438 573.042969 C 291.527344 571.921875 293.96875 568.578125 296.648438 565.152344 C 298.1875 563.207031 298.34375 563.066406 299.527344 562.613281 C 301.714844 561.789062 304.945312 560.097656 307.191406 558.5625 C 313.042969 554.625 318.523438 549.46875 335.527344 531.898438 C 349.476562 517.472656 356.691406 511.019531 361.476562 508.695312 C 363.742188 507.574219 365.164062 507.203125 366.503906 507.359375 C 368.609375 507.613281 370.1875 509.050781 371.785156 512.179688 C 372.984375 514.523438 373.398438 516.449219 373.535156 520.484375 C 373.734375 525.816406 372.945312 528.121094 369.753906 531.503906 C 369.183594 532.09375 367.230469 534.4375 365.417969 536.71875 C 361.359375 541.777344 358.246094 545.496094 354.582031 549.667969 C 343.902344 561.867188 327.566406 578.296875 308.175781 596.34375 C 303.824219 600.398438 302.957031 601.105469 301.714844 601.695312 C 297.8125 603.527344 295.703125 602.582031 290.304688 596.65625 C 286.957031 592.976562 285.558594 592.546875 282.621094 594.316406 C 281.695312 594.886719 281.496094 595.125 280.589844 596.953125 C 279.527344 599.117188 278.875 599.828125 277.617188 600.199219 C 276.945312 600.417969 276.453125 600.359375 274.03125 599.886719 C 268.769531 598.863281 266.855469 599.253906 264.238281 601.933594 C 262.976562 603.210938 260.136719 607.226562 259.035156 609.3125 C 258.421875 610.453125 258.382812 611.554688 258.898438 612.695312 C 259.585938 614.191406 261.042969 615.039062 263.390625 615.273438 C 264.394531 615.390625 264.511719 615.449219 265.558594 616.652344 C 266.148438 617.339844 267.328125 618.402344 268.15625 619.011719 C 270.363281 620.664062 270.738281 621.117188 270.738281 622.101562 C 270.738281 622.691406 270.542969 623.261719 270.03125 624.128906 C 268.984375 625.878906 267.625 627.53125 267.230469 627.53125 C 266.777344 627.53125 264.628906 626.507812 263.585938 625.78125 C 262.421875 624.996094 260.335938 622.910156 259.351562 621.589844 C 258.265625 620.113281 257.164062 617.890625 256.15625 615.078125 C 255.171875 612.359375 255.429688 612.460938 252.511719 613.835938 C 250.421875 614.839844 248.277344 616.355469 245.578125 618.699219 C 241.515625 622.277344 236.628906 627.75 236.730469 628.636719 C 236.769531 628.96875 237.320312 629.597656 238.402344 630.5625 C 242.207031 633.949219 243.742188 636.664062 243.742188 640.027344 C 243.742188 641.722656 243.351562 643.253906 242.621094 644.417969 C 241.101562 646.855469 238.285156 646.542969 233.398438 643.375 C 231.625 642.234375 227.722656 639.359375 225.96875 637.921875 C 225.398438 637.449219 224.828125 637.15625 224.492188 637.136719 C 223.824219 637.136719 221.417969 638.160156 218.246094 639.792969 C 213.753906 642.113281 208.886719 645.992188 202.9375 651.992188 C 200.511719 654.414062 199.46875 655.613281 199.46875 655.929688 C 199.46875 656.28125 199.941406 656.636719 202.148438 657.875 C 209.476562 661.988281 214.402344 663.761719 221.378906 664.804688 C 230.777344 666.21875 247.804688 665.886719 270.03125 663.820312 L 273.359375 663.523438 L 275.882812 661.125 C 277.261719 659.804688 280.984375 656.203125 284.175781 653.113281 C 311.664062 626.46875 339.210938 603.113281 359.210938 589.515625 C 371.921875 580.875 391.488281 569.660156 401.597656 565.230469 C 412.609375 560.410156 419.84375 556.652344 425.125 552.992188 C 430.1875 549.488281 435.410156 544.765625 438.484375 540.949219 C 441.320312 537.445312 444.277344 532.488281 446.011719 528.355469 C 450.011719 518.910156 451.902344 505.332031 451.566406 488.605469 C 451.269531 474.121094 449.929688 460.289062 446.382812 434.785156 C 444.691406 422.683594 443.488281 413.121094 442.855469 407.140625 C 441.753906 396.296875 441.734375 395.863281 441.578125 372.308594 C 441.359375 341.609375 441.222656 339.664062 437.0625 312.488281 C 433.476562 289.050781 432.867188 281.496094 432.589844 257.683594 L 432.472656 246.859375 L 430.640625 242.53125 C 428.078125 236.53125 426.679688 232.988281 424.335938 226.59375 C 420.867188 217.148438 419.683594 214.472656 416.75 209.375 C 414.9375 206.207031 409.753906 198.039062 409.4375 197.84375 C 409.125 197.664062 407.171875 199.082031 406.1875 200.203125 C 405.714844 200.753906 404.867188 202.09375 404.335938 203.175781 C 403.429688 205.007812 403.269531 205.515625 402.246094 210.457031 C 393.753906 251.503906 387.152344 272.855469 369.042969 317.898438 C 365.4375 326.890625 365.929688 325.886719 359.902344 335.609375 C 354.167969 344.820312 349.4375 351.960938 343.171875 360.796875 C 324.550781 387.125 290.34375 430.121094 266.9375 456.589844 C 257.65625 467.097656 252.453125 472.628906 239.328125 485.96875 L 229.261719 496.222656 L 227.488281 496.773438 C 225.398438 497.421875 223.035156 497.65625 222.542969 497.246094 C 222.246094 497.007812 222.226562 496.59375 222.34375 493.625 C 222.5625 488.25 222.621094 488.449219 216.257812 473.453125 C 203.546875 443.464844 195.074219 422.488281 188.316406 404.285156 C 171.742188 359.617188 162.976562 325.808594 159.804688 294.382812 C 158.855469 284.996094 158.71875 281.652344 158.71875 268.902344 C 158.71875 256.835938 158.796875 254.457031 159.527344 245.976562 C 163.960938 193.414062 183.921875 138.414062 218.484375 83.433594 C 227.527344 69.050781 237.597656 54.507812 253.96875 32.171875 L 259.605469 24.5 L 259.84375 20.269531 C 260.15625 14.40625 260.15625 11.375 259.804688 9.328125 C 259.308594 6.472656 259.328125 6.511719 258.855469 6.554688 C 258.5625 6.574219 255.664062 9.820312 249.164062 17.414062 Z M 383.035156 369.21875 C 383.683594 369.535156 384.238281 370.519531 384.550781 371.894531 C 384.984375 373.707031 385.28125 379.019531 385.144531 382.382812 C 385.023438 385.257812 384.964844 385.628906 384.316406 387.5 C 383.390625 390.15625 382.523438 392.027344 381.378906 393.796875 C 380.277344 395.488281 379.742188 396.140625 375.921875 400.507812 C 370.738281 406.410156 369.457031 408.871094 369.457031 412.964844 C 369.457031 414.96875 369.929688 417.824219 370.363281 418.492188 C 370.523438 418.75 370.777344 418.945312 370.9375 418.945312 C 371.429688 418.945312 374.699219 421.269531 375.410156 422.132812 C 377.929688 425.222656 378.207031 429.550781 376.335938 436.339844 C 374.03125 444.664062 368.394531 456.472656 362.246094 465.839844 C 351.84375 481.679688 341.910156 489.886719 324.628906 496.96875 C 321.8125 498.109375 315.703125 500.394531 313.203125 501.199219 C 312.453125 501.4375 311.410156 501.847656 310.898438 502.105469 C 310.382812 502.378906 309.476562 502.714844 308.886719 502.851562 C 306.1875 503.5625 305.183594 502.300781 302.660156 495 C 301.988281 493.054688 301.082031 490.75 300.648438 489.886719 C 299.605469 487.761719 297.792969 485.203125 297.417969 485.339844 C 297.261719 485.398438 297.144531 485.359375 297.144531 485.242188 C 297.144531 484.808594 292.828125 486.539062 291.269531 487.601562 C 289.125 489.058594 288.433594 490.121094 286.5625 494.746094 C 284.925781 498.878906 284.414062 499.527344 282.640625 499.902344 C 282.089844 500.019531 281.890625 499.902344 280.609375 498.71875 C 279.824219 497.992188 279.015625 497.046875 278.796875 496.613281 C 277.242188 493.605469 278.523438 488.84375 282.777344 481.816406 C 292.570312 465.582031 325.144531 427.347656 362.542969 388.148438 C 369.753906 380.59375 379.546875 370.417969 380.414062 369.59375 C 381.144531 368.90625 382.128906 368.746094 383.035156 369.21875 Z M 383.035156 369.21875 "/>
</g>
</svg>
